<?xml version="1.0" encoding="UTF-8" standalone="no"?>
<!-- Created with Inkscape (http://www.inkscape.org/) -->

<svg
   width="210mm"
   height="297mm"
   viewBox="0 0 210 297"
   version="1.1"
   id="svg1"
   xml:space="preserve"
   inkscape:export-filename="comb.png"
   inkscape:export-xdpi="96"
   inkscape:export-ydpi="96"
   inkscape:version="1.3 (0e150ed6c4, 2023-07-21)"
   sodipodi:docname="barberTools.svg"
   xmlns:inkscape="http://www.inkscape.org/namespaces/inkscape"
   xmlns:sodipodi="http://sodipodi.sourceforge.net/DTD/sodipodi-0.dtd"
   xmlns="http://www.w3.org/2000/svg"
   xmlns:svg="http://www.w3.org/2000/svg"><sodipodi:namedview
     id="namedview1"
     pagecolor="#ffffff"
     bordercolor="#000000"
     borderopacity="0.25"
     inkscape:showpageshadow="2"
     inkscape:pageopacity="0.0"
     inkscape:pagecheckerboard="0"
     inkscape:deskcolor="#d1d1d1"
     inkscape:document-units="mm"
     inkscape:export-bgcolor="#ffffff00"
     inkscape:zoom="0.32063344"
     inkscape:cx="49.90122"
     inkscape:cy="488.09631"
     inkscape:window-width="1366"
     inkscape:window-height="705"
     inkscape:window-x="-8"
     inkscape:window-y="-8"
     inkscape:window-maximized="1"
     inkscape:current-layer="layer1" /><defs
     id="defs1" /><g
     inkscape:label="Camada 1"
     inkscape:groupmode="layer"
     id="layer1"><circle
       style="fill:#daa450;fill-opacity:1;stroke-width:0.284208"
       id="path3-7"
       cx="105.01464"
       cy="148.86043"
       r="89.628998" /><circle
       style="fill:#151515;fill-opacity:1;stroke-width:0.264583"
       id="path3"
       cx="105.09851"
       cy="148.52281"
       r="83.440079" /><path
       style="fill:#daa554;fill-opacity:1;stroke-width:0.82519"
       d="m 61.080467,198.25048 c -5.92727,-2.97797 -8.516419,-11.17736 -5.266688,-16.67872 0.743202,-1.25814 6.034731,-5.44618 11.758951,-9.30676 13.271604,-8.95076 22.649098,-16.23557 35.57595,-27.63683 11.47413,-10.11998 14.53505,-13.19128 13.83971,-13.88663 -0.8297,-0.82969 -7.27049,1.32107 -8.9321,2.98267 -1.54072,1.54072 -3.01632,1.60686 -35.852214,1.60686 H 37.958715 v -3.33363 c 0,-3.91467 2.20323,-8.57895 5.494454,-11.63188 5.071072,-4.7039 3.986363,-4.58779 48.950268,-5.23949 l 41.654283,-0.60372 4.27436,-3.90653 c 5.81418,-5.31383 8.91557,-6.64195 15.51006,-6.64195 6.65173,0 7.30394,0.93556 4.26601,6.11938 -1.18104,2.0153 -2.14735,3.82872 -2.14735,4.02982 0,0.2011 1.89088,0.61648 4.20197,0.92305 7.43478,0.98626 10.61693,7.05681 6.4656,12.33436 -1.67526,2.12976 -1.90987,2.17426 -11.46257,2.17426 h -9.7523 l -6.17805,7.68113 c -17.4061,21.64089 -39.617548,42.62234 -59.027259,55.75851 -9.898544,6.69917 -14.00791,7.82838 -19.127724,5.2561 z m 15.7164,-14.26227 c 2.250927,-1.20466 2.172965,-5.453 -0.113384,-6.17866 -1.739763,-0.55218 -4.892,1.49443 -4.892,3.17615 0,0.82716 2.411814,3.85673 3.070304,3.85673 0.186423,0 1.057209,-0.3844 1.93508,-0.85422 z m 41.040143,-33.18327 c 0.32719,-1.6462 -2.0153,-3.92122 -4.0375,-3.92122 -0.93488,0 -2.02149,0.90503 -2.59325,2.15991 -0.87014,1.90975 -0.75879,2.34237 0.96141,3.7353 1.71129,1.38572 2.15479,1.43669 3.68367,0.42336 0.95599,-0.63361 1.84953,-1.71242 1.98567,-2.39735 z m -10.84153,-21.35411 c 1.88881,-0.89274 6.34483,-2.2039 9.90227,-2.9137 5.06964,-1.01153 7.04732,-1.84052 9.14724,-3.83427 1.9363,-1.83841 2.39391,-2.72487 1.65038,-3.19702 -0.56584,-0.35931 -17.66449,-0.65898 -37.996996,-0.66592 -30.523857,-0.0104 -37.367456,0.19382 -39.258515,1.17172 -3.586549,1.85468 -8.355197,7.59773 -8.355197,10.06246 v 2.16498 l 30.738307,-0.58255 c 28.139921,-0.5333 31.028601,-0.71976 34.172511,-2.2057 z m 56.53335,-4.56253 c 1.86424,-1.68711 1.89357,-2.61803 0.14338,-4.55196 -1.04008,-1.14928 -2.57155,-1.50906 -6.4236,-1.50906 -4.70778,0 -5.15592,0.16591 -6.47362,2.39659 -2.06829,3.50132 -1.79687,4.0757 2.09135,4.4259 7.61482,0.68586 9.18731,0.57356 10.66249,-0.76147 z m -19.15358,-3.13322 c 2.19208,-2.64129 -1.02755,-6.6987 -3.88675,-4.89811 -1.83335,1.15456 -2.28143,3.35239 -0.99859,4.89811 1.2746,1.5358 3.61074,1.5358 4.88534,0 z"
       id="path7" /></g></svg>
